<?xml version="1.0" standalone="no"?><!DOCTYPE svg PUBLIC "-//W3C//DTD SVG 1.1//EN" "http://www.w3.org/Graphics/SVG/1.1/DTD/svg11.dtd"><svg t="1685697795201" class="icon" viewBox="0 0 1024 1024" version="1.1" xmlns="http://www.w3.org/2000/svg" p-id="5108" xmlns:xlink="http://www.w3.org/1999/xlink" width="200" height="200"><path d="M67.6 517.6a447.7 455.4 0 1 0 895.4 0 447.7 455.4 0 1 0-895.4 0Z" fill="#5E7BF7" p-id="5109"></path><path d="M172.7 654.5h658.9c2.4-6.3 3.8-12.8 4.2-19.3 8.2-17.8 12.8-37.7 12.8-58.7 0-65.4-44.7-120.2-104.5-133.8-16.6-32.4-47.1-56.1-83.4-62.9-32.4-48.5-86.9-80.3-148.5-80.3-85 0-156.2 60.4-175.1 141.6-7.3-1.1-14.7-1.7-22.2-1.7-83.9 0-151.8 69.7-151.8 155.7 0 14.8 2 29.1 5.8 42.7 0.4 5.7 1.7 11.2 3.8 16.7z" fill="#FFFFFF" p-id="5110"></path><path d="M519 451l63.8 99.8c7.2 11.3-0.9 26.2-14.4 26.1l-128.6-0.6c-13.4-0.1-21.5-15-14.1-26.3l64.8-99.2c6.7-10.2 21.9-10.1 28.5 0.2z" fill="#5E7BF7" p-id="5111"></path></svg>